<svg width="24" height="24" fill="none" xmlns="http://www.w3.org/2000/svg"><path d="M19.5 9.75a3.004 3.004 0 0 0 3-3V4.5h-2.25a2.985 2.985 0 0 0-2.06.83A4.5 4.5 0 0 0 14.25 3H12v2.25a4.505 4.505 0 0 0 4.5 4.5h.75v9.75h-9v-3.75H9a3.004 3.004 0 0 0 3-3V10.5H9.75a2.985 2.985 0 0 0-2.06.83A4.5 4.5 0 0 0 3.75 9H1.5v2.25a4.505 4.505 0 0 0 4.5 4.5h.75v3.75H1.5V21h21v-1.5h-3.75V9.75h.75Zm-.75-2.25a1.5 1.5 0 0 1 1.5-1.5H21v.75a1.5 1.5 0 0 1-1.5 1.5h-.75V7.5Zm-10.5 6a1.5 1.5 0 0 1 1.5-1.5h.75v.75a1.5 1.5 0 0 1-1.5 1.5h-.75v-.75Zm-1.5.75H6a3.004 3.004 0 0 1-3-3v-.75h.75a3.004 3.004 0 0 1 3 3v.75Zm10.5-6h-.75a3.004 3.004 0 0 1-3-3V4.5h.75a3.004 3.004 0 0 1 3 3v.75Z" fill="#ED1B24"/></svg>