<svg width="24" height="24" fill="none" xmlns="http://www.w3.org/2000/svg"><path d="M12.513 4H10.22m1.147 0v1.964m-4.4-.617-.81.81m0 0-.81.81m.81-.81 1.39 1.39M4 10.22v2.293m0-1.146h1.964m-.617 4.398.81.81m0 0 .81.811m-.81-.81 1.39-1.39m9.84-8.218-.811-.81m0 0-.81-.81m.81.81-1.39 1.389m-4.966 3.329a1.146 1.146 0 1 0 0-2.293 1.146 1.146 0 0 0 0 2.293Z" stroke="#000" stroke-width="1.1" stroke-linecap="round" stroke-linejoin="round"/><path d="M16.606 10.048a5.402 5.402 0 1 0-6.75 6.503" stroke="#000" stroke-width="1.1" stroke-linecap="round" stroke-linejoin="round"/><path d="M18.334 18.334a3.693 3.693 0 0 1-6.307-2.612 3.695 3.695 0 1 1 6.307 2.612Zm0 0L21 21" stroke="#000" stroke-width="1.1" stroke-linecap="round" stroke-linejoin="round"/></svg>