<svg width="24" height="24" fill="none" xmlns="http://www.w3.org/2000/svg"><path d="M21 11.637c.469.32.887.683 1.254 1.09.367.406.683.851.95 1.335.265.485.46.997.585 1.536.125.539.195 1.09.211 1.652a6.676 6.676 0 0 1-1.98 4.77 6.95 6.95 0 0 1-2.145 1.44 6.68 6.68 0 0 1-2.625.54c-.71 0-1.398-.105-2.063-.316a6.466 6.466 0 0 1-1.828-.915 7.105 7.105 0 0 1-1.476-1.43 6.453 6.453 0 0 1-.996-1.839H1.5v-18h3V0H6v1.5h10.5V0H18v1.5h3v10.137ZM3 3v3h16.5V3H18v1.5h-1.5V3H6v1.5H4.5V3H3Zm7.535 15a7.766 7.766 0 0 1-.035-.75 6.676 6.676 0 0 1 1.98-4.77 6.95 6.95 0 0 1 2.145-1.44 6.68 6.68 0 0 1 2.625-.54c.781 0 1.531.129 2.25.387V7.5H3V18h7.535Zm6.715 4.5c.727 0 1.406-.137 2.04-.41a5.304 5.304 0 0 0 2.788-2.79 5.257 5.257 0 0 0 .422-2.05c0-.727-.137-1.406-.41-2.04a5.304 5.304 0 0 0-2.79-2.788A5.257 5.257 0 0 0 17.25 12c-.727 0-1.406.137-2.04.41a5.304 5.304 0 0 0-2.788 2.79A5.257 5.257 0 0 0 12 17.25c0 .727.137 1.406.41 2.04a5.304 5.304 0 0 0 2.79 2.788 5.257 5.257 0 0 0 2.05.422Zm.75-6h2.25V18H16.5v-4.5H18v3Z" fill="#ED1B24"/></svg>