<svg width="24" height="24" fill="none" xmlns="http://www.w3.org/2000/svg"><path fill-rule="evenodd" clip-rule="evenodd" d="M10.461 5.308a.499.499 0 0 0-.922 0l-2.5 6a.5.5 0 1 0 .923.385l.497-1.193h3.082l.498 1.193a.5.5 0 0 0 .922-.385l-2.5-6ZM10 6.8l1.125 2.7h-2.25L10 6.8Z" fill="#000"/><path d="M15.5 7a.5.5 0 0 0-1 0v1h-1a.5.5 0 0 0 0 1h1v1a.5.5 0 0 0 1 0V9h1a.5.5 0 0 0 0-1h-1V7Z" fill="#000"/><path fill-rule="evenodd" clip-rule="evenodd" d="M19 17.015A1.992 1.992 0 0 1 17 19h-2v1h-2.5v2h-1v-2H9v-1H7c-1.105 0-2-.889-2-1.985V5.164c0-1.096.895-1.985 2-1.985h3l.566-.577a2.01 2.01 0 0 1 2.868 0l.566.577h3c1.105 0 2 .889 2 1.985v11.851ZM13.286 3.88a1 1 0 0 0 .714.3h3c.56 0 1 .448 1 .985v8.605a4.001 4.001 0 0 0-.462-.313c-.913-.531-2.233-.807-3.792.113-1.284.758-2.492.963-3.805.99-.586.012-1.184-.01-1.825-.035l-.265-.01A34.6 34.6 0 0 0 6 14.486V5.164c0-.537.44-.985 1-.985h3a1 1 0 0 0 .714-.3l.566-.578a1.01 1.01 0 0 1 1.44 0l.566.579ZM7.814 15.514A33.535 33.535 0 0 0 6 15.486v1.53c0 .536.44.984 1 .984h10c.56 0 1-.448 1-.985v-1.85a3.501 3.501 0 0 0-.965-.844c-.648-.377-1.578-.6-2.78.11-1.48.872-2.872 1.099-4.293 1.129-.617.012-1.247-.011-1.885-.036l-.263-.01Z" fill="#000"/></svg>