<svg width="24" height="24" fill="none" xmlns="http://www.w3.org/2000/svg"><path d="M14.17 20.89c4.184-.277 7.516-3.657 7.79-7.9.053-.83.053-1.69 0-2.52-.274-4.242-3.606-7.62-7.79-7.9a32.997 32.997 0 0 0-4.34 0c-4.184.279-7.516 3.658-7.79 7.9-.053.84-.053 1.682 0 2.52.1 1.546.783 2.977 1.588 4.185.467.845.159 1.9-.328 2.823-.35.665-.526.997-.385 1.237.14.24.455.248 1.084.263 1.245.03 2.084-.322 2.75-.813.377-.28.566-.418.696-.434.13-.016.387.09.899.3.46.19.995.307 1.485.34 1.425.094 2.914.094 4.342 0" stroke="#ED1B24" stroke-width="1.5" stroke-linecap="round" stroke-linejoin="round"/><path d="M10.5 9.538C10.5 8.688 11.172 8 12 8s1.5.689 1.5 1.538c0 .307-.087.592-.238.832-.448.714-1.262 1.396-1.262 2.245V13m0 2h.009" stroke="#ED1B24" stroke-width="1.5" stroke-linecap="round" stroke-linejoin="round"/></svg>