<svg width="24" height="24" fill="none" xmlns="http://www.w3.org/2000/svg"><path d="M14 5V2m3 0H9c-2.357 0-3.536 0-4.268.732C4 3.464 4 4.643 4 7v15" stroke="#000" stroke-width="1.5" stroke-linecap="round" stroke-linejoin="round"/><path d="M8 11.125c0-2.458 0-3.687.578-4.57.25-.382.571-.71.946-.965C10.389 5 11.592 5 14 5s3.611 0 4.476.59c.375.255.696.583.946.966.578.882.578 2.111.578 4.569v1.75c0 2.458 0 3.687-.578 4.57-.25.38-.571.708-.946.965-.864.59-2.068.59-4.476.59s-3.611 0-4.476-.59a3.5 3.5 0 0 1-.946-.965C8 16.562 8 15.333 8 12.875v-1.75Z" stroke="#000" stroke-width="1.5" stroke-linecap="round" stroke-linejoin="round"/><path d="M8 10.372c6.857-4.13 5.571 2.633 12 0M11 22a3 3 0 0 0 3-3" stroke="#000" stroke-width="1.5" stroke-linecap="round" stroke-linejoin="round"/></svg>