<svg width="24" height="24" fill="none" xmlns="http://www.w3.org/2000/svg"><path d="M3.425 9.33c.561-1.845 1.623-3.362 3.186-4.55 1.563-1.188 3.36-1.781 5.39-1.78a8.8 8.8 0 0 1 3.227.59 9.04 9.04 0 0 1 2.716 1.652 6.816 6.816 0 0 0-.226.555 5.441 5.441 0 0 0-.143.478 8.458 8.458 0 0 0-2.525-1.662A7.659 7.659 0 0 0 12 4c-1.683 0-3.192.471-4.525 1.413-1.333.942-2.3 2.146-2.9 3.612a2.278 2.278 0 0 0-.6.067 1.833 1.833 0 0 0-.55.239M12 21c-2.03 0-3.827-.59-5.39-1.771-1.563-1.18-2.624-2.694-3.185-4.54.168.11.35.19.543.24.194.05.396.074.607.071.6 1.467 1.567 2.667 2.9 3.6C8.808 19.533 10.317 20 12 20c2.217 0 4.104-.779 5.663-2.337C19.222 16.105 20.001 14.217 20 12c0-.283-.013-.567-.038-.85a6.157 6.157 0 0 0-.137-.85c.145.041.284.079.418.112s.277.056.43.069a.907.907 0 0 0 .202-.023c.047.253.08.506.097.758.019.252.028.513.028.784a8.739 8.739 0 0 1-.71 3.506 9.121 9.121 0 0 1-1.926 2.857 9.11 9.11 0 0 1-2.858 1.926A8.728 8.728 0 0 1 12 21Zm-3.6-9.823L10.058 9.5 8.375 7.817l-.608.608 1.075 1.05-1.075 1.075.633.627ZM21 8.692c-.46 0-.857-.167-1.19-.5A1.63 1.63 0 0 1 19.307 7c0-.399.102-.814.307-1.245.205-.431.667-1.17 1.385-2.217.718 1.047 1.18 1.786 1.384 2.217.205.431.308.846.308 1.245 0 .46-.167.857-.5 1.191A1.63 1.63 0 0 1 21 8.692Zm-5.375 2.49.633-.632-1.075-1.075 1.05-1.05-.608-.608L13.942 9.5l1.683 1.682ZM12 13.5a4.87 4.87 0 0 0-1.368.198 4.589 4.589 0 0 0-1.288.608l-3.652-2.133c0-.241-.047-.472-.142-.692a1.067 1.067 0 0 0-.454-.512c-.29-.161-.592-.2-.907-.118a1.137 1.137 0 0 0-.72.553c-.161.29-.2.592-.118.907.083.315.267.555.553.72.207.12.432.167.673.142a1.66 1.66 0 0 0 .673-.22l3.36 1.938c-.207.206-.4.43-.58.672-.18.242-.339.516-.476.821h.996c.35-.6.825-1.083 1.425-1.45.6-.367 1.275-.55 2.025-.55s1.425.183 2.025.55c.6.367 1.075.85 1.425 1.45h.996c-.464-.969-1.099-1.692-1.905-2.169a4.913 4.913 0 0 0-2.54-.715Z" fill="#000"/><path d="M3.425 9.33c.561-1.845 1.623-3.362 3.186-4.55 1.563-1.188 3.36-1.781 5.39-1.78a8.8 8.8 0 0 1 3.227.59 9.04 9.04 0 0 1 2.716 1.652 6.816 6.816 0 0 0-.226.555 5.441 5.441 0 0 0-.143.478 8.458 8.458 0 0 0-2.525-1.662A7.659 7.659 0 0 0 12 4c-1.683 0-3.192.471-4.525 1.413-1.333.942-2.3 2.146-2.9 3.612a2.278 2.278 0 0 0-.6.067 1.833 1.833 0 0 0-.55.239M12 21c-2.03 0-3.827-.59-5.39-1.771-1.563-1.18-2.624-2.694-3.185-4.54.168.11.35.19.543.24.194.05.396.074.607.071.6 1.467 1.567 2.667 2.9 3.6C8.808 19.533 10.317 20 12 20c2.217 0 4.104-.779 5.663-2.337C19.222 16.105 20.001 14.217 20 12c0-.283-.013-.567-.038-.85a6.157 6.157 0 0 0-.137-.85c.145.041.284.079.418.112s.277.056.43.069a.907.907 0 0 0 .202-.023c.047.253.08.506.097.758.019.252.028.513.028.784a8.739 8.739 0 0 1-.71 3.506 9.121 9.121 0 0 1-1.926 2.857 9.11 9.11 0 0 1-2.858 1.926A8.728 8.728 0 0 1 12 21Zm-3.6-9.823L10.058 9.5 8.375 7.817l-.608.608 1.075 1.05-1.075 1.075.633.627ZM21 8.692c-.46 0-.857-.167-1.19-.5A1.63 1.63 0 0 1 19.307 7c0-.399.102-.814.307-1.245.205-.431.667-1.17 1.385-2.217.718 1.047 1.18 1.786 1.384 2.217.205.431.308.846.308 1.245 0 .46-.167.857-.5 1.191A1.63 1.63 0 0 1 21 8.692Zm-5.375 2.49.633-.632-1.075-1.075 1.05-1.05-.608-.608L13.942 9.5l1.683 1.682ZM12 13.5a4.87 4.87 0 0 0-1.368.198 4.589 4.589 0 0 0-1.288.608l-3.652-2.133c0-.241-.047-.472-.142-.692a1.067 1.067 0 0 0-.454-.512c-.29-.161-.592-.2-.907-.118a1.137 1.137 0 0 0-.72.553c-.161.29-.2.592-.118.907.083.315.267.555.553.72.207.12.432.167.673.142a1.66 1.66 0 0 0 .673-.22l3.36 1.938c-.207.206-.4.43-.58.672-.18.242-.339.516-.476.821h.996c.35-.6.825-1.083 1.425-1.45.6-.367 1.275-.55 2.025-.55s1.425.183 2.025.55c.6.367 1.075.85 1.425 1.45h.996c-.464-.969-1.099-1.692-1.905-2.169a4.913 4.913 0 0 0-2.54-.715Z" stroke="#000" stroke-width=".3"/></svg>