<svg width="24" height="24" fill="none" xmlns="http://www.w3.org/2000/svg"><path d="M17 2c0 .51 0 .765.068 1.002.037.13.089.256.155.375.12.216.3.396.66.757l1.983 1.982c.36.36.54.54.757.661.119.067.244.118.375.155C21.235 7 21.49 7 22 7M11.693 7l-4.928 4.928c-1.065 1.065-1.597 1.597-1.724 2.235-.055.276-.055.56 0 .837.127.638.66 1.17 1.724 2.235S8.362 18.832 9 18.959c.277.055.56.055.837 0 .638-.127 1.17-.66 2.235-1.724L17 12.307M11 6l7 7M8 18.637l-1.17.835c-.47.337-.705.505-.964.525-.1.008-.2 0-.298-.025-.251-.062-.455-.267-.864-.675-.41-.41-.614-.614-.676-.865a1 1 0 0 1-.025-.298c.02-.259.188-.494.524-.965L5.363 16M13.5 8l5-4M16 10.5l4-5m-15.5 14L2 22" stroke="currentColor" stroke-width="1.5" stroke-linecap="round" stroke-linejoin="round"/></svg>