<svg width="24" height="24" fill="none" xmlns="http://www.w3.org/2000/svg"><path d="M21.333 9.87h-.9l-2.315-5.096a1.312 1.312 0 0 0-.491-.563A1.355 1.355 0 0 0 16.9 4H7.1c-.258 0-.51.073-.726.21a1.313 1.313 0 0 0-.492.564L3.567 9.87h-.9a.674.674 0 0 0-.472.19.645.645 0 0 0 0 .923.674.674 0 0 0 .472.19h.666v6.523c0 .346.14.677.39.922s.59.382.944.382h2c.353 0 .692-.137.942-.382S8 18.042 8 17.696V16.39h8v1.305c0 .346.14.677.39.922s.59.382.943.382h2c.354 0 .693-.137.943-.382s.39-.576.39-.922v-6.522h.667a.674.674 0 0 0 .472-.191.645.645 0 0 0 0-.922.674.674 0 0 0-.472-.191ZM7.1 5.304h9.8l2.074 4.566H5.026L7.1 5.304Zm-.433 12.392h-2V16.39h2v1.305Zm10.666 0V16.39h2v1.305h-2Zm2-2.609H4.667v-3.913h14.666v3.913ZM6 13.13c0-.173.07-.338.195-.46a.674.674 0 0 1 .472-.192H8c.177 0 .346.069.471.191a.645.645 0 0 1 0 .923.674.674 0 0 1-.471.19H6.667a.674.674 0 0 1-.472-.19A.645.645 0 0 1 6 13.13Zm9.333 0c0-.173.07-.338.196-.46a.674.674 0 0 1 .471-.192h1.333c.177 0 .347.069.472.191a.645.645 0 0 1 0 .923.674.674 0 0 1-.472.19H16a.674.674 0 0 1-.471-.19.645.645 0 0 1-.196-.462Z" fill="#ED1B24"/></svg>