<svg width="24" height="24" fill="none" xmlns="http://www.w3.org/2000/svg"><g clip-path="url('#clip0_1_1599')"><path d="M21.593 13.224a2.29 2.29 0 0 0-1.99-.396l-3.923.902a2.625 2.625 0 0 0-2.555-3.23H8.432a2.982 2.982 0 0 0-2.122.878L4.19 13.5H1.5A1.5 1.5 0 0 0 0 15v3.75a1.5 1.5 0 0 0 1.5 1.5h9.75a.749.749 0 0 0 .182-.023l6-1.5a.655.655 0 0 0 .111-.037l3.645-1.55.04-.02a2.306 2.306 0 0 0 .37-3.896h-.005ZM1.5 15h2.25v3.75H1.5V15Zm19.072.77-3.563 1.517-5.853 1.463H5.25v-4.19l2.122-2.12a1.487 1.487 0 0 1 1.06-.44h4.693a1.125 1.125 0 1 1 0 2.25H10.5a.75.75 0 1 0 0 1.5h3a.776.776 0 0 0 .168-.019l6.281-1.444.03-.008a.806.806 0 0 1 .59 1.49h.003ZM15.375 9c.185 0 .37-.015.553-.045a3.376 3.376 0 1 0 2.646-4.406A3.375 3.375 0 1 0 15.375 9ZM21 7.875a1.875 1.875 0 1 1-3.75 0 1.875 1.875 0 0 1 3.75 0ZM15.375 3.75a1.875 1.875 0 0 1 1.805 1.37 3.376 3.376 0 0 0-1.407 2.337 1.875 1.875 0 1 1-.398-3.707Z" fill="#ED1B24"/></g><defs><clipPath id="clip0_1_1599"><path fill="#fff" d="M0 0h24v24H0z"/></clipPath></defs></svg>