<svg width="20" height="20" fill="none" xmlns="http://www.w3.org/2000/svg"><path d="m17.312 12.524-3.69-1.654a1.095 1.095 0 0 0-1.082.128l-1.93 1.64a.146.146 0 0 1-.13.005c-1.24-.599-2.525-1.875-3.125-3.098a.15.15 0 0 1 0-.13L9 7.46a1.094 1.094 0 0 0 .12-1.082L7.48 2.695A1.094 1.094 0 0 0 6.34 2.04a4.237 4.237 0 0 0-3.685 4.21c0 6.117 4.977 11.094 11.094 11.094a4.239 4.239 0 0 0 4.21-3.685 1.094 1.094 0 0 0-.648-1.136Zm-3.562 3.882c-5.6 0-10.156-4.556-10.156-10.156a3.3 3.3 0 0 1 2.865-3.281h.018a.156.156 0 0 1 .143.102l1.649 3.68a.156.156 0 0 1 0 .131L6.619 8.84a1.094 1.094 0 0 0-.105 1.117c.694 1.419 2.124 2.837 3.558 3.53a1.093 1.093 0 0 0 1.12-.11l1.928-1.641a.149.149 0 0 1 .125-.008l3.69 1.654a.156.156 0 0 1 .096.156 3.3 3.3 0 0 1-3.281 2.868Z" fill="#ED1B24"/></svg>