<svg width="24" height="24" fill="none" xmlns="http://www.w3.org/2000/svg"><path d="M10.2 6.597c0 .659-.177 1.277-.486 1.809L12 10.723l6.055-6.055a1.8 1.8 0 0 1 2.545 0l-10.899 10.9a3.6 3.6 0 1 1-1.272-1.273l2.298-2.299L8.43 9.697a3.6 3.6 0 1 1 1.771-3.1Zm-1.8 0a1.8 1.8 0 1 0-3.6 0 1.8 1.8 0 0 0 3.6 0Zm12.2 12.728a1.8 1.8 0 0 1-2.545 0L13.27 14.54l1.273-1.273 6.057 6.058Zm-5-8.228h1.8v1.8h-1.8v-1.8Zm3.6 0H21v1.8h-1.8v-1.8Zm-12.6 0h1.8v1.8H6.6v-1.8Zm-3.6 0h1.8v1.8H3v-1.8Zm3.6 8.1a1.8 1.8 0 1 0 0-3.6 1.8 1.8 0 0 0 0 3.6Z" fill="#000"/></svg>