<?xml version="1.0" standalone="no"?>
<!DOCTYPE svg PUBLIC "-//W3C//DTD SVG 20010904//EN"
 "http://www.w3.org/TR/2001/REC-SVG-20010904/DTD/svg10.dtd">
<svg version="1.0" xmlns="http://www.w3.org/2000/svg"
 width="105.000000pt" height="105.000000pt" viewBox="0 0 105.000000 105.000000"
 preserveAspectRatio="xMidYMid meet">

<g transform="translate(0.000000,105.000000) scale(0.100000,-0.100000)"
fill="#000000" stroke="none">
<path d="M435 1018 c-83 -30 -123 -82 -136 -180 -23 -168 -23 -158 3 -186 13
-15 33 -40 42 -57 52 -86 123 -130 198 -123 56 6 104 39 155 109 18 24 44 60
59 79 20 28 24 42 19 70 -3 19 -9 67 -14 105 -12 108 -24 123 -133 167 -73 30
-139 35 -193 16z m234 -187 c11 -21 31 -47 44 -57 36 -28 42 -67 14 -101 -12
-15 -35 -47 -49 -70 -34 -52 -86 -92 -130 -100 -62 -10 -141 46 -185 131 -9
17 -24 37 -34 44 -25 17 -24 64 0 86 11 10 24 30 31 46 12 28 12 28 88 24 59
-3 89 0 127 14 70 27 72 27 94 -17z"/>
<path d="M356 425 c-10 -8 -54 -26 -97 -40 -54 -18 -86 -35 -103 -55 -27 -32
-46 -106 -46 -176 0 -39 4 -47 32 -64 55 -33 163 -52 328 -57 229 -8 404 20
457 73 22 22 24 30 18 82 -15 129 -37 161 -134 193 -36 12 -80 30 -97 40 l-31
19 -52 -75 c-29 -41 -54 -75 -57 -75 -12 0 -24 54 -14 64 5 5 10 23 10 39 0
27 -2 28 -42 25 -47 -3 -48 -7 -33 -84 12 -57 -13 -46 -66 31 -28 41 -52 75
-53 75 0 0 -10 -7 -20 -15z m84 -149 c66 -94 70 -103 70 -154 l0 -55 -94 6
c-107 7 -175 20 -230 44 l-39 17 6 63 c7 69 28 118 54 128 10 3 47 16 83 29
36 13 68 23 72 22 4 -1 39 -46 78 -100z m337 74 c100 -35 115 -54 127 -151 6
-44 4 -60 -8 -72 -22 -21 -144 -48 -253 -54 l-93 -6 0 60 c0 51 5 66 32 104
101 140 110 150 126 144 10 -4 40 -15 69 -25z"/>
<path d="M717 283 c-4 -3 -7 -17 -7 -29 0 -17 -7 -23 -27 -26 -39 -4 -43 -36
-6 -40 22 -2 29 -9 31 -30 5 -39 39 -39 44 0 2 21 9 28 31 30 19 2 27 9 27 22
0 13 -8 20 -27 22 -22 2 -29 9 -31 31 -3 25 -20 35 -35 20z"/>
</g>
</svg>
