<?xml version="1.0" standalone="no"?>
<!DOCTYPE svg PUBLIC "-//W3C//DTD SVG 20010904//EN"
 "http://www.w3.org/TR/2001/REC-SVG-20010904/DTD/svg10.dtd">
<svg version="1.0" xmlns="http://www.w3.org/2000/svg"
 width="833.000000pt" height="834.000000pt" viewBox="0 0 833.000000 834.000000"
 preserveAspectRatio="xMidYMid meet">

<g transform="translate(0.000000,834.000000) scale(0.100000,-0.100000)"
fill="#000000" stroke="none">
<path d="M685 7735 c-239 -53 -437 -209 -545 -430 -65 -134 -83 -212 -83 -355
-1 -278 129 -519 361 -673 l72 -48 2 -2809 3 -2809 21 -28 c11 -15 36 -38 54
-51 l33 -22 3536 2 c3518 3 3536 3 3563 23 15 11 37 38 48 61 20 40 20 54 20
2837 l0 2797 43 26 c89 56 169 128 228 207 113 150 163 299 162 487 0 144 -18
221 -85 359 -44 93 -61 115 -147 201 -106 107 -179 154 -320 204 l-86 31
-3410 2 c-2797 1 -3421 -1 -3470 -12z m6830 -310 c317 -82 467 -416 318 -710
-32 -62 -132 -162 -199 -197 -116 -62 153 -58 -3504 -58 -3644 0 -3383 -4
-3502 56 -29 15 -80 54 -114 88 -99 99 -144 207 -144 347 0 221 149 416 360
471 61 16 295 17 3395 17 2959 1 3337 -1 3390 -14z m-65 -2697 l0 -1418 -3320
0 -3320 0 0 1418 0 1417 3320 0 3320 0 0 -1417z m0 -2818 l0 -1090 -3320 0
-3320 0 0 1090 0 1090 3320 0 3320 0 0 -1090z"/>
<path d="M1173 5969 c-43 -12 -90 -62 -103 -107 -15 -55 -14 -2228 1 -2273 7
-19 21 -45 33 -57 49 -55 -83 -52 2038 -52 1941 0 1963 0 1996 20 18 11 41 34
52 52 20 32 20 53 20 1174 l0 1141 -22 33 c-13 18 -36 43 -51 54 l-28 21
-1952 2 c-1174 1 -1965 -2 -1984 -8z m3727 -739 l0 -430 -74 0 -73 0 -106 248
c-58 136 -118 278 -133 316 -19 46 -39 77 -61 93 -60 46 -164 41 -210 -10 -12
-12 -103 -201 -204 -419 -101 -219 -186 -398 -189 -398 -3 0 -31 122 -62 272
-38 179 -63 281 -76 297 -49 67 -126 88 -196 55 -23 -11 -106 -101 -248 -268
-267 -314 -265 -312 -271 -306 -2 3 -75 167 -161 365 -87 198 -164 370 -172
383 -55 85 -203 80 -260 -10 -12 -18 -119 -208 -239 -423 -119 -214 -220 -394
-224 -398 -4 -4 -18 39 -30 95 -49 222 -69 290 -93 315 -46 49 -65 53 -258 53
l-180 0 0 300 0 300 1760 0 1760 0 0 -430z m-2307 -412 c255 -586 243 -564
327 -589 42 -13 97 -3 130 24 17 13 150 167 325 375 61 72 113 131 116 131 3
1 38 -155 78 -346 40 -192 80 -361 90 -378 24 -43 95 -77 149 -72 89 9 93 16
325 519 116 252 214 455 218 450 4 -4 37 -79 74 -167 120 -286 107 -275 322
-278 l148 -2 3 -347 2 -348 -1760 0 -1760 0 0 480 0 480 98 0 97 0 75 -326
c41 -179 82 -339 92 -355 27 -44 75 -69 134 -69 99 0 70 -44 584 878 29 50 55
92 59 92 4 0 37 -69 74 -152z"/>
<path d="M5389 5839 c-20 -12 -46 -39 -58 -60 -21 -37 -22 -46 -19 -393 3
-340 4 -356 24 -382 11 -15 33 -37 48 -48 26 -20 40 -21 369 -21 l342 0 33 23
c67 48 67 48 67 437 0 389 0 389 -67 437 -33 23 -35 23 -368 25 -326 3 -336 2
-371 -18z m491 -444 l0 -156 -127 3 -128 3 -3 140 c-1 76 0 145 2 152 4 10 37
13 131 13 l125 0 0 -155z"/>
<path d="M6390 5838 c-18 -13 -43 -36 -54 -51 -20 -28 -21 -39 -21 -392 0
-352 1 -364 21 -391 11 -15 33 -37 48 -48 26 -20 40 -21 371 -21 390 0 377 -3
423 86 23 44 23 47 20 384 -3 319 -4 342 -23 374 -11 19 -33 43 -48 55 -27 20
-41 21 -366 24 -337 3 -337 3 -371 -20z m490 -443 l0 -156 -127 3 -128 3 -3
140 c-1 76 0 145 2 152 4 10 37 13 131 13 l125 0 0 -155z"/>
<path d="M5417 4486 c-48 -17 -71 -38 -91 -81 -14 -28 -16 -85 -16 -377 0
-336 1 -344 23 -382 12 -22 38 -49 57 -60 33 -20 53 -21 337 -24 329 -4 362 0
418 49 52 46 57 86 53 455 l-3 321 -25 35 c-49 73 -48 73 -400 75 -248 2 -323
0 -353 -11z m463 -456 l0 -151 -127 3 -128 3 -3 134 c-1 74 0 141 2 148 4 10
37 13 131 13 l125 0 0 -150z"/>
<path d="M6417 4486 c-50 -18 -67 -34 -88 -81 -17 -36 -19 -73 -19 -375 0
-329 0 -337 23 -380 13 -26 36 -53 57 -65 33 -19 52 -20 360 -20 365 0 372 1
420 72 l25 37 0 355 0 356 -24 39 c-45 72 -63 76 -411 75 -229 0 -314 -3 -343
-13z m463 -456 l0 -150 -124 0 c-104 0 -125 3 -130 16 -8 21 -8 269 1 277 3 4
62 7 130 7 l123 0 0 -150z"/>
<path d="M4645 2636 c-282 -55 -507 -265 -580 -541 -122 -463 234 -925 712
-925 331 0 614 208 713 525 27 88 37 246 21 341 -39 224 -192 429 -396 529
-49 25 -117 52 -150 61 -84 22 -235 26 -320 10z m-25 -732 l0 -395 -42 23
c-68 36 -145 120 -179 192 -76 161 -49 341 68 467 44 48 126 109 145 109 4 0
8 -178 8 -396z m397 357 c224 -150 254 -461 63 -652 -31 -31 -75 -66 -98 -78
l-42 -21 0 395 c0 223 4 395 9 395 5 0 35 -18 68 -39z"/>
<path d="M6375 2644 c-307 -50 -543 -263 -621 -559 -26 -102 -24 -266 5 -369
67 -242 254 -437 488 -513 103 -33 275 -42 382 -19 100 21 241 92 326 163 91
76 181 209 220 324 36 108 46 283 21 398 -34 159 -148 335 -284 435 -65 47
-175 101 -247 120 -61 17 -236 28 -290 20z m-55 -734 c0 -263 -3 -390 -10
-390 -26 0 -97 46 -141 91 -73 75 -112 162 -117 265 -9 170 53 295 193 390 27
19 55 34 62 34 10 0 13 -82 13 -390z m358 371 c57 -29 124 -93 159 -152 98
-164 78 -366 -50 -507 -43 -47 -121 -102 -144 -102 -10 0 -13 76 -13 390 0
215 2 390 5 390 3 0 22 -9 43 -19z"/>
<path d="M1470 2439 c-69 -13 -183 -74 -244 -130 -115 -105 -176 -242 -176
-396 1 -108 11 -158 55 -249 41 -86 139 -187 222 -232 195 -103 426 -85 593
46 222 175 276 473 130 716 -70 116 -220 222 -349 246 -63 12 -168 11 -231 -1z
m186 -314 c98 -29 158 -111 158 -215 0 -248 -326 -320 -430 -95 -32 67 -31
127 2 193 30 60 74 98 136 117 57 18 75 18 134 0z"/>
<path d="M2746 2434 c-179 -43 -334 -195 -390 -383 -20 -68 -21 -207 -1 -281
49 -185 193 -331 380 -386 84 -24 220 -22 306 5 158 50 294 181 351 338 30 81
36 239 13 319 -57 196 -209 344 -397 389 -78 18 -184 18 -262 -1z m201 -309
c128 -38 195 -181 143 -303 -82 -190 -338 -190 -420 0 -53 123 13 263 143 304
55 17 74 17 134 -1z"/>
</g>
</svg>
