<svg width="28" height="28" viewBox="0 0 28 28" fill="none" xmlns="http://www.w3.org/2000/svg">
<path d="M6.13105 22.877H20.674C24.5175 22.877 27.377 19.959 27.377 16.338C27.377 12.6115 24.33 9.88105 20.357 9.88105C18.8925 6.98605 16.174 5.12305 12.787 5.12305C8.38105 5.12305 4.74805 8.56805 4.36155 12.928C2.24005 13.537 0.623047 15.3885 0.623047 17.8615C0.623047 20.6265 2.63855 22.8765 6.13105 22.8765M6.10755 20.99C3.70505 20.99 2.49805 19.654 2.49805 17.9195C2.49805 16.5015 3.31805 15.2475 5.31055 14.7085C5.95555 14.5445 6.18955 14.24 6.24805 13.572C6.51805 9.75155 9.38855 6.99755 12.787 6.99755C15.424 6.99755 17.498 8.43905 18.7635 11.0405C19.0335 11.603 19.3845 11.802 20.076 11.802C23.545 11.802 25.502 13.9 25.502 16.396C25.502 18.951 23.463 20.99 20.791 20.99H6.10755Z" fill="black"/>
</svg>
