<svg width="24" height="24" fill="none" xmlns="http://www.w3.org/2000/svg"><path d="M10.235 10.412a4.706 4.706 0 1 0 0-9.411 4.706 4.706 0 0 0 0 9.411Z" stroke="#ED1B24" stroke-width="1.5" stroke-linecap="round" stroke-linejoin="round"/><path d="M2 19.824v-1.176a8.236 8.236 0 0 1 11.765-7.443m1.924 4.401 1.222-2.591a.419.419 0 0 1 .767 0l1.224 2.591 2.733.42c.35.052.49.504.235.763l-1.976 2.015.466 2.849c.06.365-.306.644-.62.471l-2.445-1.344-2.445 1.344c-.314.173-.68-.106-.62-.47l.466-2.85-1.977-2.015c-.254-.259-.115-.71.236-.765l2.734-.418Z" stroke="#ED1B24" stroke-width="1.5" stroke-linecap="round" stroke-linejoin="round"/></svg>