<svg width="24" height="24" fill="none" xmlns="http://www.w3.org/2000/svg"><path d="M11 20c-.55 0-1.02-.196-1.412-.587A1.93 1.93 0 0 1 9 18v-2c0-.55.196-1.02.588-1.412A1.93 1.93 0 0 1 11 14h2c.55 0 1.021.196 1.413.588.392.392.588.863.587 1.412v2c0 .55-.196 1.02-.587 1.413A1.921 1.921 0 0 1 13 20h-2Zm-8-7.6a1.033 1.033 0 0 1-.75.2.913.913 0 0 1-.65-.4.985.985 0 0 1-.187-.75.988.988 0 0 1 .387-.65l8.975-6.875a2.061 2.061 0 0 1 1.225-.4 2.091 2.091 0 0 1 1.225.4L16 6.05V5.5c0-.417.146-.77.438-1.062A1.451 1.451 0 0 1 17.5 4c.416 0 .77.145 1.063.438.293.293.438.647.437 1.062v2.85l3.225 2.45a.939.939 0 0 1 .375.65c.033.267-.033.517-.2.75a.913.913 0 0 1-.65.4 1.032 1.032 0 0 1-.75-.2l-9-6.875L3 12.4Z" fill="#ED1B24"/></svg>