<?xml version="1.0" standalone="no"?>
<!DOCTYPE svg PUBLIC "-//W3C//DTD SVG 20010904//EN"
 "http://www.w3.org/TR/2001/REC-SVG-20010904/DTD/svg10.dtd">
<svg version="1.0" xmlns="http://www.w3.org/2000/svg"
 width="108.000000pt" height="109.000000pt" viewBox="0 0 108.000000 109.000000"
 preserveAspectRatio="xMidYMid meet">

<g transform="translate(0.000000,109.000000) scale(0.100000,-0.100000)"
fill="#000000" stroke="none">
<path d="M51 1046 c-9 -10 -11 -30 -6 -58 18 -127 49 -212 106 -294 29 -43 32
-53 33 -133 1 -63 6 -97 21 -126 19 -39 99 -124 203 -215 l52 -46 0 -72 c0
-57 3 -72 15 -72 22 0 21 137 -1 168 -8 12 -53 54 -100 93 -110 92 -156 160
-162 239 -2 33 -2 71 2 84 10 41 62 92 118 117 47 21 68 24 188 24 156 0 218
-16 267 -68 44 -46 54 -72 54 -132 0 -100 -52 -180 -182 -276 -39 -28 -76 -64
-84 -80 -21 -40 -21 -169 0 -169 12 0 15 15 15 74 l0 73 43 39 c24 22 66 57
93 79 107 84 147 164 143 281 -3 65 -1 75 24 108 47 61 88 161 105 255 17 101
11 121 -37 121 -37 0 -51 -17 -51 -61 0 -57 -35 -156 -76 -216 -20 -29 -38
-53 -41 -53 -2 0 -14 7 -26 14 -93 61 -392 60 -486 -1 -22 -14 -25 -14 -47 13
-39 48 -76 134 -86 204 -6 36 -13 72 -18 80 -10 21 -64 25 -79 6z m62 -68 c7
-74 40 -160 81 -218 32 -45 39 -80 15 -80 -14 0 -57 62 -84 123 -26 56 -58
203 -49 219 3 4 11 8 18 8 9 0 15 -19 19 -52z m859 2 c-6 -89 -46 -197 -99
-268 -22 -30 -27 -32 -40 -19 -13 12 -9 22 26 72 45 64 81 165 81 227 0 32 3
39 18 36 14 -3 16 -12 14 -48z"/>
<path d="M301 651 c-33 -31 -40 -51 -18 -51 16 0 67 52 67 68 0 19 -16 14 -49
-17z"/>
<path d="M276 523 c-13 -13 -5 -42 24 -81 17 -23 37 -42 45 -42 21 0 19 4 -15
52 -16 22 -30 47 -30 54 0 15 -15 26 -24 17z"/>
</g>
</svg>
