<?xml version="1.0" standalone="no"?>
<!DOCTYPE svg PUBLIC "-//W3C//DTD SVG 20010904//EN"
 "http://www.w3.org/TR/2001/REC-SVG-20010904/DTD/svg10.dtd">
<svg version="1.0" xmlns="http://www.w3.org/2000/svg"
 width="419.000000pt" height="404.000000pt" viewBox="0 0 419.000000 404.000000"
 preserveAspectRatio="xMidYMid meet">

<g transform="translate(0.000000,404.000000) scale(0.100000,-0.100000)"
fill="#000000" stroke="none">
<path d="M1565 3929 c-167 -21 -356 -99 -481 -199 -133 -105 -251 -292 -313
-493 -67 -217 -90 -552 -57 -831 8 -66 20 -177 26 -245 22 -256 114 -517 264
-745 81 -124 130 -180 269 -314 l66 -63 -182 -302 c-165 -274 -181 -306 -181
-348 0 -62 29 -109 84 -136 42 -22 55 -23 276 -23 l231 0 6 -42 c6 -45 28 -81
71 -112 27 -20 39 -21 421 -21 382 0 394 1 421 21 43 31 65 67 71 112 l6 42
231 0 c221 0 234 1 276 23 62 31 84 66 84 130 0 50 -8 65 -177 347 l-177 295
52 45 c51 45 147 142 206 210 55 64 163 233 208 325 61 127 119 309 143 455
20 119 21 161 21 878 0 732 -1 754 -20 792 -11 21 -36 51 -57 67 -33 25 -44
28 -113 28 -75 0 -79 -1 -140 -44 -212 -149 -367 -157 -710 -37 -85 29 -226
79 -313 110 -223 79 -341 96 -512 75z m270 -124 c66 -14 269 -82 420 -140 139
-54 292 -97 404 -113 105 -15 122 -15 207 0 105 18 189 53 289 122 37 25 76
46 86 46 10 0 31 -11 46 -24 l28 -24 3 -466 c1 -255 -2 -467 -6 -470 -5 -3
-23 14 -40 37 -68 90 -179 168 -314 220 l-83 32 -755 3 c-498 2 -776 -1 -816
-8 -77 -13 -187 -58 -257 -104 -65 -43 -157 -134 -196 -193 -38 -57 -42 -42
-31 104 14 169 28 254 61 366 90 301 266 493 529 578 155 50 297 61 425 34z
m1045 -909 c210 -69 362 -225 416 -426 34 -129 14 -376 -47 -580 -78 -262
-250 -536 -441 -703 l-66 -57 -20 27 c-10 16 -83 136 -162 268 -82 137 -165
262 -192 291 -119 127 -322 164 -485 89 -99 -45 -146 -102 -319 -390 -87 -146
-161 -265 -165 -265 -13 0 -123 107 -182 178 -167 200 -281 432 -338 682 -30
135 -38 384 -14 466 68 236 269 409 505 434 41 4 386 7 765 6 635 -2 694 -3
745 -20z m-685 -1200 c28 -13 65 -38 83 -57 33 -33 762 -1237 762 -1258 0 -5
-4 -13 -10 -16 -5 -3 -121 -6 -257 -6 l-248 0 -56 223 c-78 309 -77 306 -100
319 -28 14 -77 -6 -85 -35 -3 -12 31 -167 76 -344 64 -255 79 -327 69 -338
-17 -21 -711 -21 -728 0 -10 11 5 83 69 338 45 177 79 332 76 344 -8 29 -57
49 -85 35 -24 -13 -26 -20 -99 -315 -31 -126 -60 -228 -64 -227 -5 0 -118 1
-253 1 -205 0 -247 2 -251 14 -6 15 706 1209 749 1257 83 92 231 119 352 65z"/>
<path d="M1410 2390 c-25 -25 -26 -54 -2 -77 9 -10 52 -40 95 -68 42 -27 77
-53 77 -57 0 -4 -40 -35 -90 -68 -105 -71 -121 -98 -76 -137 20 -17 34 -22 49
-17 12 4 81 46 153 95 133 89 154 112 133 151 -14 25 -274 198 -299 198 -11 0
-29 -9 -40 -20z"/>
<path d="M2523 2319 c-73 -49 -137 -97 -142 -107 -21 -39 0 -62 133 -151 72
-49 141 -91 153 -95 15 -5 29 0 49 17 45 39 29 66 -76 137 -50 33 -90 64 -90
68 0 4 32 27 71 52 89 56 119 83 119 110 0 27 -35 60 -62 59 -13 0 -82 -40
-155 -90z"/>
<path d="M3773 1718 c-30 -8 -43 -24 -43 -55 0 -50 15 -53 246 -53 l214 0 0
55 0 54 -195 3 c-108 2 -208 0 -222 -4z"/>
<path d="M0 1665 l0 -55 184 0 c154 0 187 3 200 16 18 18 20 47 6 75 -10 18
-23 19 -200 19 l-190 0 0 -55z"/>
<path d="M203 1237 c-170 -85 -188 -101 -171 -150 18 -51 44 -46 226 44 138
70 169 89 176 111 8 23 6 32 -14 53 -13 14 -31 25 -39 24 -9 0 -89 -37 -178
-82z"/>
<path d="M3710 1295 c-20 -21 -22 -30 -14 -53 8 -22 37 -41 149 -99 177 -91
200 -99 230 -83 13 7 26 21 28 31 12 46 -3 59 -174 145 -93 46 -175 84 -182
84 -7 0 -24 -11 -37 -25z"/>
<path d="M526 929 c-53 -42 -235 -230 -241 -250 -10 -32 20 -69 57 -69 26 0
49 18 154 125 101 103 124 131 124 155 0 18 -8 34 -22 44 -29 21 -40 20 -72
-5z"/>
<path d="M3532 934 c-14 -10 -22 -25 -22 -45 0 -24 22 -51 124 -154 105 -105
130 -125 155 -125 35 0 66 37 57 68 -7 20 -192 213 -240 250 -35 26 -44 27
-74 6z"/>
</g>
</svg>
