<?xml version="1.0" standalone="no"?>
<!DOCTYPE svg PUBLIC "-//W3C//DTD SVG 20010904//EN"
 "http://www.w3.org/TR/2001/REC-SVG-20010904/DTD/svg10.dtd">
<svg version="1.0" xmlns="http://www.w3.org/2000/svg"
 width="512.000000pt" height="512.000000pt" viewBox="0 0 512.000000 512.000000"
 preserveAspectRatio="xMidYMid meet">

<g transform="translate(0.000000,512.000000) scale(0.100000,-0.100000)"
fill="#000000" stroke="none">
<path d="M2514 5107 c-12 -7 -66 -70 -119 -142 -350 -466 -680 -721 -1005
-775 -139 -23 -370 1 -567 60 -56 16 -111 30 -123 30 -11 0 -34 -13 -52 -29
l-33 -29 0 -794 c0 -601 3 -821 13 -908 70 -594 291 -1122 668 -1595 113 -141
377 -406 519 -519 130 -104 366 -264 485 -329 183 -99 327 -102 504 -9 105 55
376 238 499 337 226 182 463 431 626 660 264 368 434 759 521 1195 53 267 55
310 55 1168 l0 794 -33 29 c-18 16 -41 29 -52 29 -12 0 -67 -14 -123 -30 -207
-62 -439 -85 -582 -57 -322 61 -649 316 -990 772 -99 133 -122 154 -165 154
-14 0 -35 -5 -46 -12z m136 -374 c107 -136 359 -390 469 -473 351 -265 663
-333 1096 -239 49 10 91 19 93 19 10 0 -7 -1442 -17 -1525 -101 -779 -489
-1452 -1133 -1970 -105 -84 -338 -240 -443 -297 -74 -40 -86 -43 -155 -43 -70
0 -81 3 -155 44 -239 131 -514 339 -725 551 -472 472 -750 1024 -846 1681 -14
96 -18 231 -21 837 -3 397 -3 722 -1 722 2 0 44 -9 93 -19 434 -94 734 -28
1093 238 112 83 363 335 472 474 46 59 87 107 90 107 3 0 44 -48 90 -107z"/>
<path d="M2214 3500 c-12 -4 -31 -21 -43 -36 -20 -26 -21 -37 -21 -260 l0
-234 -235 0 -235 0 -32 -29 -33 -29 0 -352 0 -352 33 -29 32 -29 235 0 235 0
0 -235 0 -235 29 -32 29 -33 352 0 352 0 29 33 29 32 0 235 0 235 235 0 235 0
32 29 33 29 0 352 0 352 -33 29 -32 29 -235 0 -235 0 0 235 0 235 -29 32 -29
33 -339 2 c-186 1 -348 -2 -359 -7z m556 -420 c0 -251 4 -275 55 -298 18 -8
99 -12 255 -12 l230 0 0 -210 0 -210 -230 0 c-251 0 -275 -4 -298 -55 -8 -18
-12 -99 -12 -255 l0 -230 -210 0 -210 0 0 230 c0 156 -4 237 -12 255 -23 51
-47 55 -298 55 l-230 0 0 210 0 210 230 0 c156 0 237 4 255 12 51 23 55 47 55
298 l0 230 210 0 210 0 0 -230z"/>
<path d="M3788 2105 c-57 -32 -66 -108 -19 -156 71 -70 192 2 161 96 -6 18
-19 40 -29 49 -26 24 -81 29 -113 11z"/>
<path d="M3623 1688 c-13 -6 -45 -55 -80 -122 -157 -302 -369 -550 -643 -754
-142 -105 -150 -114 -150 -164 0 -53 43 -98 94 -98 87 0 449 309 628 536 142
179 298 452 298 519 0 72 -78 116 -147 83z"/>
</g>
</svg>
