<?xml version="1.0" standalone="no"?>
<!DOCTYPE svg PUBLIC "-//W3C//DTD SVG 20010904//EN"
 "http://www.w3.org/TR/2001/REC-SVG-20010904/DTD/svg10.dtd">
<svg version="1.0" xmlns="http://www.w3.org/2000/svg"
 width="90.000000pt" height="90.000000pt" viewBox="0 0 90.000000 90.000000"
 preserveAspectRatio="xMidYMid meet">

<g transform="translate(0.000000,90.000000) scale(0.100000,-0.100000)"
fill="#000000" stroke="none">
<path d="M101 786 c-47 -26 -50 -45 -51 -291 0 -197 2 -234 16 -254 27 -37 74
-51 179 -51 l95 0 0 -29 c0 -23 -5 -30 -22 -33 -18 -2 -23 -10 -23 -33 l0 -30
151 -3 c129 -2 153 0 164 14 17 20 2 48 -29 52 -16 3 -21 10 -21 33 l0 29 95
0 c105 0 152 14 179 51 14 20 16 57 16 259 0 254 -2 261 -57 289 -34 17 -660
15 -692 -3z m674 -89 c3 -12 5 -56 3 -97 l-3 -75 -115 -5 -115 -5 -26 -49
c-15 -26 -29 -44 -32 -39 -3 5 -17 50 -31 100 -14 50 -30 103 -36 118 -17 44
-40 27 -69 -50 l-27 -70 -99 0 -100 0 -3 75 c-2 41 0 85 3 97 l5 23 320 0 320
0 5 -23z m-320 -339 c14 -59 50 -32 102 77 l17 35 103 0 103 0 0 -88 c0 -55
-4 -92 -12 -100 -17 -17 -619 -17 -636 0 -8 8 -12 45 -12 100 l0 88 108 0 c59
0 112 4 119 8 7 4 20 26 29 47 l17 40 28 -90 c16 -49 31 -102 34 -117z"/>
</g>
</svg>
