<?xml version="1.0" standalone="no"?>
<!DOCTYPE svg PUBLIC "-//W3C//DTD SVG 20010904//EN"
 "http://www.w3.org/TR/2001/REC-SVG-20010904/DTD/svg10.dtd">
<svg version="1.0" xmlns="http://www.w3.org/2000/svg"
 width="185.000000pt" height="182.000000pt" viewBox="0 0 185.000000 182.000000"
 preserveAspectRatio="xMidYMid meet">

<g transform="translate(0.000000,182.000000) scale(0.100000,-0.100000)"
fill="#000000" stroke="none">
<path d="M770 1735 c-190 -42 -372 -157 -486 -308 -59 -78 -128 -221 -150
-312 -27 -107 -24 -298 5 -400 28 -101 89 -228 140 -292 l39 -50 -5 -79 c-4
-75 -3 -81 25 -125 41 -64 102 -93 182 -87 72 5 123 40 158 108 69 137 -43
295 -197 277 -25 -3 -56 -9 -68 -12 -18 -6 -28 3 -64 56 -194 287 -163 667 74
911 290 298 760 296 1043 -5 125 -132 189 -278 201 -451 14 -217 -72 -426
-237 -579 -114 -106 -298 -189 -366 -167 -50 17 -64 47 -64 139 l0 80 54 15
c65 19 161 82 199 131 16 20 40 61 55 93 26 56 27 61 30 291 l3 233 -26 54
c-32 65 -74 93 -192 125 -103 27 -113 22 -113 -61 0 -77 10 -85 89 -69 57 12
63 12 88 -7 47 -35 55 -78 51 -284 -3 -166 -6 -190 -26 -235 -51 -111 -148
-175 -267 -175 -120 0 -212 60 -264 170 -24 52 -26 65 -29 240 -4 206 4 249
51 284 25 19 31 19 88 7 79 -16 89 -8 89 69 0 83 -10 88 -116 60 -111 -30
-158 -61 -190 -126 -25 -51 -25 -53 -22 -285 l3 -234 32 -67 c50 -107 145
-186 260 -217 l41 -11 4 -100 c3 -91 6 -103 34 -142 63 -90 159 -111 293 -63
263 95 461 310 532 580 33 124 31 310 -5 430 -82 274 -276 475 -546 566 -85
29 -109 32 -230 35 -92 3 -156 -1 -200 -11z m-205 -1400 c17 -16 25 -35 25
-60 0 -80 -92 -116 -149 -60 -33 33 -34 85 -1 120 32 34 91 35 125 0z"/>
<path d="M880 1050 l0 -70 -70 0 -70 0 0 -60 0 -60 70 0 69 0 3 -72 3 -73 60
0 60 0 3 73 3 72 69 0 70 0 0 60 0 60 -70 0 -70 0 0 70 0 70 -65 0 -65 0 0
-70z"/>
</g>
</svg>
