<?xml version="1.0" standalone="no"?>
<!DOCTYPE svg PUBLIC "-//W3C//DTD SVG 20010904//EN"
 "http://www.w3.org/TR/2001/REC-SVG-20010904/DTD/svg10.dtd">
<svg version="1.0" xmlns="http://www.w3.org/2000/svg"
 width="154.000000pt" height="154.000000pt" viewBox="0 0 154.000000 154.000000"
 preserveAspectRatio="xMidYMid meet">

<g transform="translate(0.000000,154.000000) scale(0.100000,-0.100000)"
fill="#000000" stroke="none">
<path d="M593 1513 c-10 -3 -13 -60 -13 -236 0 -205 3 -237 19 -273 24 -53 79
-108 140 -139 88 -44 123 -132 83 -205 -46 -84 -123 -101 -225 -48 -55 29 -71
33 -142 33 -64 0 -89 -5 -123 -23 -56 -30 -110 -86 -134 -138 -22 -50 -34
-259 -21 -374 8 -71 9 -75 33 -75 l25 0 5 195 c5 185 6 197 30 240 38 67 96
103 175 108 58 4 70 1 121 -27 71 -40 138 -50 197 -27 170 65 192 292 37 383
-147 85 -144 78 -150 360 -4 193 -8 235 -20 243 -16 11 -19 11 -37 3z"/>
<path d="M748 1509 c-16 -9 -18 -31 -18 -223 0 -255 -3 -249 96 -216 101 34
159 30 249 -14 207 -102 278 -338 167 -561 -33 -67 -143 -175 -212 -208 -168
-82 -366 -50 -472 74 -87 103 -94 109 -133 109 -47 0 -83 -25 -92 -64 -5 -17
-6 -107 -3 -201 l5 -170 25 0 25 0 5 180 c5 172 6 180 25 183 15 2 33 -12 60
-46 59 -72 105 -109 182 -144 63 -30 75 -32 173 -32 88 1 116 5 172 27 170 66
287 190 339 360 17 55 21 87 17 166 -3 89 -7 105 -40 173 -42 84 -97 145 -181
199 -88 57 -165 68 -312 47 -19 -3 -20 3 -23 171 -3 195 -9 217 -54 190z"/>
<path d="M930 990 c-20 -20 -26 -50 -13 -64 4 -3 16 6 28 20 25 31 45 25 45
-12 0 -33 35 -66 67 -62 32 4 67 47 57 71 -9 24 -23 21 -36 -8 -15 -34 -40
-28 -50 12 -8 32 -41 63 -65 63 -7 0 -22 -9 -33 -20z"/>
<path d="M1050 775 c-10 -26 -24 -32 -35 -15 -12 19 -25 10 -25 -16 0 -22 -4
-25 -27 -22 -20 2 -29 -2 -31 -14 -2 -10 1 -18 7 -18 17 0 13 -30 -4 -36 -8
-4 -15 -12 -15 -20 0 -8 7 -14 15 -14 17 0 20 -25 5 -35 -5 -3 -10 -13 -10
-22 0 -11 7 -14 26 -10 16 3 27 0 30 -9 14 -47 15 -47 26 -36 18 18 38 14 38
-7 0 -30 29 -35 36 -6 7 27 23 32 42 13 11 -11 12 -11 26 36 3 9 14 12 30 9
29 -6 36 13 14 36 -11 10 -10 15 5 25 21 16 22 32 2 40 -17 6 -21 36 -4 36 6
0 9 8 7 18 -2 12 -11 16 -31 14 -23 -3 -27 0 -27 22 0 27 -18 34 -38 14 -8 -8
-14 -5 -21 15 -13 34 -29 34 -41 2z m83 -86 c51 -62 -15 -155 -91 -128 -64 22
-69 124 -9 149 32 14 79 3 100 -21z"/>
<path d="M929 440 c-34 -20 -31 -88 5 -112 21 -14 63 -8 81 12 52 57 -19 139
-86 100z m66 -55 c0 -22 -31 -33 -47 -17 -17 17 -1 44 24 40 15 -2 23 -10 23
-23z"/>
<path d="M650 420 c-23 -23 -27 -60 -6 -60 7 0 21 10 30 23 15 22 16 22 31 3
8 -11 15 -28 15 -38 0 -24 44 -51 70 -43 26 8 54 50 46 70 -8 23 -25 18 -36
-10 -14 -38 -38 -31 -50 15 -16 59 -62 78 -100 40z"/>
</g>
</svg>
