<?xml version="1.0" standalone="no"?>
<!DOCTYPE svg PUBLIC "-//W3C//DTD SVG 20010904//EN"
 "http://www.w3.org/TR/2001/REC-SVG-20010904/DTD/svg10.dtd">
<svg version="1.0" xmlns="http://www.w3.org/2000/svg"
 width="348.000000pt" height="348.000000pt" viewBox="0 0 348.000000 348.000000"
 preserveAspectRatio="xMidYMid meet">

<g transform="translate(0.000000,348.000000) scale(0.100000,-0.100000)"
fill="#000000" stroke="none">
<path d="M3133 3376 c-23 -7 -56 -23 -75 -34 -18 -12 -477 -466 -1020 -1009
-973 -974 -1034 -1039 -1012 -1074 4 -6 -224 -242 -510 -528 -363 -363 -516
-523 -516 -538 0 -56 142 -98 330 -97 133 1 220 19 327 70 102 48 188 122 425
361 231 232 219 211 193 334 l-16 73 67 67 c65 65 67 66 110 61 95 -10 57 -45
1071 970 917 918 942 944 957 997 20 69 20 104 0 170 -39 132 -201 219 -331
177z m151 -129 c69 -39 95 -128 61 -201 -8 -17 -55 -71 -104 -120 -82 -82 -90
-87 -100 -68 -6 11 -37 78 -70 150 l-59 130 57 55 c31 31 67 60 81 66 42 16
93 12 134 -12z m-291 -349 l68 -151 -67 -68 c-38 -38 -71 -65 -74 -61 -9 10
-130 279 -130 288 0 8 121 141 130 143 3 0 36 -67 73 -151z m-222 -241 l62
-138 -66 -67 c-41 -41 -70 -63 -76 -57 -4 6 -37 72 -71 149 l-62 138 68 69
c47 47 70 65 76 56 4 -6 35 -74 69 -150z m-232 -216 c34 -74 61 -139 61 -145
0 -6 -249 -260 -553 -564 -482 -481 -556 -552 -582 -552 -38 0 -307 60 -320
72 -6 5 254 272 655 673 365 365 668 661 672 657 3 -4 34 -67 67 -141z m-1400
-1311 c20 -5 56 -15 80 -21 l44 -11 -62 -62 c-33 -34 -61 -70 -61 -81 0 -11 7
-54 16 -95 l15 -75 -238 -235 c-268 -265 -307 -293 -472 -326 -83 -16 -262
-16 -278 0 -8 7 896 916 911 916 5 0 25 -4 45 -10z"/>
<path d="M686 610 c-65 -66 -76 -83 -71 -102 9 -28 32 -48 58 -48 22 0 163
133 173 162 9 29 -22 68 -54 68 -22 0 -46 -17 -106 -80z"/>
<path d="M516 441 c-25 -27 -17 -72 15 -90 24 -13 29 -13 53 2 34 22 36 69 4
91 -30 21 -51 20 -72 -3z"/>
</g>
</svg>
