<?xml version="1.0" standalone="no"?>
<!DOCTYPE svg PUBLIC "-//W3C//DTD SVG 20010904//EN"
 "http://www.w3.org/TR/2001/REC-SVG-20010904/DTD/svg10.dtd">
<svg version="1.0" xmlns="http://www.w3.org/2000/svg"
 width="348.000000pt" height="348.000000pt" viewBox="0 0 348.000000 348.000000"
 preserveAspectRatio="xMidYMid meet">

<g transform="translate(0.000000,348.000000) scale(0.100000,-0.100000)"
fill="#000000" stroke="none">
<path d="M2900 3328 c-36 -5 -231 -29 -435 -53 -413 -51 -429 -55 -483 -137
-26 -40 -27 -47 -27 -171 l0 -129 -440 -205 c-336 -156 -449 -213 -478 -241
-46 -44 -72 -121 -61 -179 7 -39 101 -241 129 -279 19 -26 71 -12 -411 -114
-209 -44 -396 -88 -417 -97 -53 -23 -103 -84 -117 -144 -11 -43 -8 -65 20
-201 42 -198 62 -238 140 -278 61 -31 93 -32 199 -10 55 12 104 20 109 18 4
-1 -47 -158 -115 -348 -68 -190 -126 -362 -130 -383 -18 -114 89 -237 207
-237 26 0 1239 255 1288 271 80 26 142 113 142 198 0 65 -55 315 -77 354 -26
44 -81 84 -135 99 -42 11 -61 9 -155 -10 -60 -12 -113 -22 -120 -22 -8 0 -4
21 11 67 l22 67 50 12 c27 6 99 35 159 64 61 28 261 122 445 207 184 85 351
167 370 182 49 39 80 103 80 165 0 39 -11 74 -44 146 -24 52 -42 96 -41 98 1
1 127 18 280 37 311 39 336 47 390 123 29 43 30 47 29 155 -1 126 -14 185 -51
239 -33 49 -111 88 -176 88 -35 0 -48 4 -44 13 3 6 42 93 88 192 75 162 83
186 84 241 0 80 -39 147 -105 180 -55 28 -95 33 -180 22z m87 -188 c2 -14 -55
-164 -131 -345 -91 -219 -130 -321 -121 -323 7 -2 84 8 171 23 86 14 165 23
175 20 18 -6 20 -13 39 -124 9 -52 9 -66 -2 -78 -13 -13 -61 -22 -283 -57 -55
-9 -200 -31 -322 -51 -254 -40 -269 -41 -277 -19 -4 9 52 156 132 347 76 183
135 333 132 335 -4 1 -76 -8 -160 -22 -200 -32 -202 -31 -217 86 -9 66 -9 86
1 96 8 8 69 22 137 33 68 10 246 39 394 63 311 51 329 52 332 16z m-903 -456
c25 -10 27 9 -50 -563 -19 -145 -34 -269 -32 -276 2 -8 69 17 190 71 103 46
194 81 202 78 18 -7 99 -186 94 -210 -2 -14 -107 -65 -413 -201 -225 -101
-410 -183 -412 -183 -9 0 2 37 53 179 69 191 73 244 28 317 -20 33 -44 55 -79
73 -27 14 -51 26 -52 26 -1 1 5 49 13 109 8 60 14 110 12 111 -2 2 -82 -32
-178 -76 -96 -43 -182 -78 -191 -78 -23 -1 -31 12 -75 112 -29 68 -36 92 -27
105 8 13 868 408 895 411 3 1 13 -2 22 -5z m-530 -850 c9 -3 16 -15 16 -26 0
-18 -288 -942 -310 -996 -9 -20 -7 -22 13 -17 12 3 128 32 257 64 154 38 241
56 251 50 11 -6 28 -53 50 -144 29 -118 31 -137 19 -149 -19 -17 -1235 -320
-1249 -311 -6 3 -11 17 -11 31 0 14 70 245 156 515 86 270 154 492 152 494 -1
2 -109 -23 -238 -56 -129 -32 -243 -58 -252 -59 -24 0 -27 8 -63 151 -25 99
-30 132 -21 143 7 9 240 73 606 165 677 170 604 153 624 145z"/>
</g>
</svg>
