<?xml version="1.0" standalone="no"?>
<!DOCTYPE svg PUBLIC "-//W3C//DTD SVG 20010904//EN"
 "http://www.w3.org/TR/2001/REC-SVG-20010904/DTD/svg10.dtd">
<svg version="1.0" xmlns="http://www.w3.org/2000/svg"
 width="123.000000pt" height="123.000000pt" viewBox="0 0 123.000000 123.000000"
 preserveAspectRatio="xMidYMid meet">

<g transform="translate(0.000000,123.000000) scale(0.100000,-0.100000)"
fill="#000000" stroke="none">
<path d="M613 1204 c-7 -18 12 -34 41 -34 17 0 15 -5 -13 -34 -18 -19 -30 -39
-27 -45 4 -6 36 -11 72 -11 57 0 65 2 62 18 -2 10 -14 18 -32 20 l-28 4 32 33
c47 48 36 65 -40 65 -46 0 -62 -4 -67 -16z"/>
<path d="M882 1173 c3 -15 16 -18 81 -21 42 -2 77 -6 77 -10 0 -3 -34 -41 -76
-83 -101 -102 -98 -109 39 -109 107 0 138 10 116 37 -8 8 -36 13 -82 13 l-71
0 83 85 c45 46 80 89 76 95 -4 6 -54 10 -126 10 -109 0 -120 -2 -117 -17z"/>
<path d="M422 959 c-85 -15 -172 -60 -243 -127 -82 -77 -123 -150 -145 -265
-16 -81 -16 -93 -1 -168 9 -45 28 -107 44 -138 42 -84 136 -174 230 -219 77
-36 80 -37 198 -37 102 0 129 4 178 24 360 144 417 632 100 852 -95 66 -245
99 -361 78z m260 -96 c293 -138 334 -529 76 -719 -213 -156 -508 -84 -625 152
-31 64 -37 88 -41 158 -7 133 26 224 117 319 91 96 173 128 311 125 83 -3 104
-7 162 -35z"/>
<path d="M251 576 c-36 -13 -61 -40 -48 -53 4 -4 29 1 54 10 45 17 50 17 95 0
26 -9 51 -13 55 -9 13 12 -12 39 -48 52 -43 16 -65 16 -108 0z"/>
<path d="M655 575 c-22 -8 -41 -15 -42 -15 -2 0 -3 -9 -3 -20 0 -20 33 -29 44
-11 11 17 67 21 104 6 40 -17 65 -13 56 9 -6 16 -74 46 -102 46 -9 -1 -35 -7
-57 -15z"/>
<path d="M601 344 c-54 -29 -94 -30 -168 -4 -69 24 -83 25 -83 4 0 -8 20 -24
48 -37 84 -38 231 -24 264 27 22 33 -8 38 -61 10z"/>
<path d="M1000 840 c0 -17 7 -20 45 -20 25 0 45 -3 45 -7 0 -4 -21 -28 -46
-54 -26 -26 -43 -52 -40 -58 8 -12 158 -16 169 -4 13 13 -16 33 -49 33 -19 0
-34 4 -34 8 0 4 20 27 44 51 61 60 54 71 -50 71 -77 0 -84 -2 -84 -20z"/>
</g>
</svg>
