<?xml version="1.0" standalone="no"?>
<!DOCTYPE svg PUBLIC "-//W3C//DTD SVG 20010904//EN"
 "http://www.w3.org/TR/2001/REC-SVG-20010904/DTD/svg10.dtd">
<svg version="1.0" xmlns="http://www.w3.org/2000/svg"
 width="128.000000pt" height="121.000000pt" viewBox="0 0 128.000000 121.000000"
 preserveAspectRatio="xMidYMid meet">

<g transform="translate(0.000000,121.000000) scale(0.100000,-0.100000)"
fill="#000000" stroke="none">
<path d="M67 1162 c-15 -16 -17 -46 -17 -216 l0 -197 29 -17 30 -17 3 -300 c4
-413 -16 -389 330 -393 264 -4 287 1 331 62 21 30 22 39 25 332 l3 302 65 4
c60 4 67 7 107 46 l43 42 77 0 c140 0 173 32 165 161 -3 63 -7 74 -31 95 -25
21 -38 24 -114 24 l-85 0 -50 45 -50 45 -423 0 c-396 0 -423 -1 -438 -18z
m123 -111 c0 -63 3 -80 16 -85 29 -11 179 -7 192 6 7 7 12 42 12 85 l0 73 35
0 35 0 0 -74 c0 -51 4 -77 14 -85 9 -8 47 -11 107 -9 l94 3 5 80 5 80 102 3
103 3 45 -42 45 -42 0 -92 0 -93 -47 -46 -48 -46 -401 0 c-363 0 -402 2 -408
16 -4 9 -4 25 -1 35 6 18 26 19 363 21 349 3 357 3 357 23 0 20 -8 20 -354 23
-269 2 -357 5 -363 15 -9 15 -11 211 -1 220 3 4 26 7 50 7 l43 0 0 -79z m165
19 l0 -55 -57 -3 -58 -3 0 61 0 61 58 -3 57 -3 0 -55z m295 0 l0 -61 -57 3
-58 3 -3 44 c-5 66 0 71 63 71 l55 0 0 -60z m548 -42 c17 -17 16 -142 -2 -157
-9 -7 -40 -11 -78 -9 l-63 3 -3 74 c-2 41 -1 80 2 88 7 17 127 18 144 1z
m-450 -609 l-3 -301 -28 -24 c-28 -24 -29 -24 -262 -24 -233 0 -234 0 -262 24
l-28 24 -3 301 -3 301 296 0 296 0 -3 -301z"/>
<path d="M305 652 c-61 -7 -65 -18 -65 -194 0 -211 -14 -198 215 -198 229 0
215 -13 215 198 0 205 12 192 -186 195 -82 1 -162 0 -179 -1z m313 -194 l3
-148 -166 0 -165 0 0 143 c0 79 3 147 7 151 4 3 77 5 162 4 l156 -3 3 -147z"/>
</g>
</svg>
