<?xml version="1.0" standalone="no"?>
<!DOCTYPE svg PUBLIC "-//W3C//DTD SVG 20010904//EN"
 "http://www.w3.org/TR/2001/REC-SVG-20010904/DTD/svg10.dtd">
<svg version="1.0" xmlns="http://www.w3.org/2000/svg"
 width="130.000000pt" height="130.000000pt" viewBox="0 0 130.000000 130.000000"
 preserveAspectRatio="xMidYMid meet">

<g transform="translate(0.000000,130.000000) scale(0.100000,-0.100000)"
fill="#000000" stroke="none">
<path d="M658 1283 c-15 -4 -18 -16 -18 -74 0 -83 -13 -89 -61 -29 -18 22 -37
40 -43 40 -6 -1 -24 -11 -40 -24 l-29 -24 33 -70 32 -71 -21 -34 c-19 -31 -19
-47 0 -47 11 0 49 65 49 83 0 9 -12 42 -26 72 -21 44 -24 59 -15 68 10 9 21 3
49 -31 60 -69 99 -49 104 53 4 74 22 79 56 18 21 -39 27 -43 63 -43 35 0 40 4
59 40 28 55 48 52 56 -10 6 -43 11 -52 41 -70 63 -37 90 -18 28 20 -30 18 -35
28 -41 72 -4 27 -12 51 -18 53 -60 18 -64 17 -85 -30 -26 -60 -50 -60 -85 0
-27 45 -40 51 -88 38z"/>
<path d="M213 1170 c-33 -20 -53 -48 -53 -74 0 -9 23 -46 50 -84 l50 -69 -25
-57 c-27 -60 -32 -100 -14 -94 6 2 20 26 30 53 35 94 105 155 194 169 21 4 41
8 43 11 8 8 -10 25 -28 25 -10 0 -22 5 -25 11 -14 22 -157 129 -173 129 -9 0
-31 -9 -49 -20z m47 -25 c0 -15 -38 -55 -52 -55 -18 0 -7 30 18 49 32 25 34
25 34 6z m95 -58 l48 -43 -62 -36 -61 -36 -31 39 -31 39 39 38 c21 22 41 40
45 41 3 0 27 -18 53 -42z"/>
<path d="M810 1072 c-85 -22 -147 -60 -204 -123 -44 -49 -47 -51 -77 -40 -46
16 -126 13 -165 -5 -98 -47 -174 -206 -174 -367 0 -269 207 -462 559 -518 82
-13 84 -12 130 12 57 30 99 90 131 190 22 65 25 92 25 229 0 146 -2 160 -29
233 -20 56 -42 93 -77 131 -27 29 -46 56 -42 60 12 12 63 6 114 -15 65 -25 96
-22 122 12 23 32 34 108 18 136 -13 26 -70 53 -146 69 -78 17 -106 16 -185 -4z
m230 -39 c59 -20 80 -40 80 -75 0 -35 -26 -88 -43 -88 -7 0 -40 9 -72 21 -42
15 -74 19 -105 16 -51 -6 -102 -26 -98 -38 2 -5 23 -19 48 -32 96 -51 149
-168 157 -353 9 -177 -33 -328 -112 -404 -34 -33 -40 -35 -98 -33 -34 1 -98
11 -142 23 -289 75 -447 255 -433 493 11 189 108 327 230 327 86 0 190 -76
252 -182 20 -37 46 -51 46 -25 0 20 -49 88 -109 150 l-56 58 52 49 c118 109
259 141 403 93z"/>
<path d="M535 810 c-4 -6 10 -29 29 -52 39 -45 52 -89 42 -143 -6 -28 -4 -35
8 -35 9 0 18 11 22 25 15 61 54 -38 54 -137 0 -61 -19 -139 -49 -201 -23 -48
-29 -131 -8 -125 6 3 13 18 15 34 4 39 52 154 65 154 6 0 19 -8 29 -17 14 -12
21 -14 30 -5 8 8 3 19 -21 41 -30 28 -32 34 -29 88 l3 58 36 -3 c21 -2 40 1
44 7 6 11 0 15 -47 25 -22 5 -34 22 -71 99 -42 87 -118 197 -137 197 -5 0 -12
-5 -15 -10z"/>
</g>
</svg>
