<?xml version="1.0" standalone="no"?>
<!DOCTYPE svg PUBLIC "-//W3C//DTD SVG 20010904//EN"
 "http://www.w3.org/TR/2001/REC-SVG-20010904/DTD/svg10.dtd">
<svg version="1.0" xmlns="http://www.w3.org/2000/svg"
 width="396.000000pt" height="373.000000pt" viewBox="0 0 396.000000 373.000000"
 preserveAspectRatio="xMidYMid meet">

<g transform="translate(0.000000,373.000000) scale(0.100000,-0.100000)"
fill="#000000" stroke="none">
<path d="M1405 3293 c-11 -3 -68 -20 -126 -39 -104 -33 -107 -34 -150 -18 -70
25 -117 13 -269 -70 -489 -266 -828 -565 -808 -714 4 -23 34 -84 75 -152 39
-63 217 -361 397 -662 244 -410 333 -551 354 -561 95 -49 261 -15 536 109 70
31 128 55 129 53 2 -2 25 -35 52 -74 66 -93 173 -204 270 -280 356 -278 792
-370 1232 -259 l101 26 43 -31 c57 -42 127 -61 219 -61 138 0 265 54 367 157
80 81 106 147 101 249 -3 57 -9 79 -31 112 -62 94 -164 137 -306 130 -231 -13
-432 -174 -449 -360 l-5 -58 -51 -15 c-157 -46 -386 -58 -552 -30 -247 42
-488 163 -666 333 -73 70 -183 202 -190 229 -3 12 105 83 126 83 6 0 21 -16
33 -35 62 -95 253 -210 395 -239 321 -66 652 109 768 405 45 113 53 174 59
444 l6 259 39 8 c173 36 337 205 375 386 44 212 -68 443 -261 539 -81 41 -134
53 -228 53 -136 0 -234 -38 -331 -128 -96 -88 -139 -171 -160 -302 -36 -235
129 -484 362 -544 l54 -13 -1 -209 c-1 -310 -20 -411 -104 -534 -151 -223
-453 -295 -694 -167 -65 35 -176 134 -176 157 0 8 30 37 68 65 254 188 390
346 380 443 -3 36 -36 91 -628 1082 -139 233 -147 241 -259 239 -42 -1 -85 -3
-96 -6z m421 -630 c163 -274 305 -512 315 -529 24 -40 24 -44 -2 -44 -12 0
-69 -16 -127 -35 -58 -20 -106 -34 -107 -33 -2 2 -121 201 -265 443 -144 242
-287 480 -316 529 -30 48 -54 92 -54 96 0 15 175 67 232 69 25 1 46 -32 324
-496z m-485 15 c139 -233 287 -482 331 -555 43 -72 78 -138 78 -146 0 -21 -23
-37 -150 -107 -262 -144 -466 -288 -623 -439 -57 -55 -101 -91 -106 -85 -5 5
-136 223 -291 484 -156 261 -305 512 -332 558 -50 82 -50 83 -32 110 58 90
232 239 429 368 153 101 393 234 422 234 19 0 63 -69 274 -422z m1604 360 c6
-12 18 -26 28 -32 21 -13 47 0 62 32 5 12 17 22 25 22 27 0 134 -56 168 -88
32 -30 33 -33 18 -54 -21 -30 -20 -44 4 -68 14 -14 28 -18 45 -14 21 5 25 1
36 -38 11 -42 8 -155 -6 -190 -5 -13 -14 -16 -31 -12 -17 4 -31 0 -44 -11 -24
-22 -26 -48 -4 -70 15 -15 14 -19 -16 -50 -37 -38 -110 -80 -157 -90 -29 -6
-33 -4 -33 14 0 47 -84 52 -96 5 -6 -22 -10 -24 -38 -18 -46 9 -120 52 -156
89 -30 31 -31 35 -16 50 36 36 5 91 -45 81 -26 -5 -29 -2 -39 32 -13 48 -13
127 1 175 9 33 14 38 33 33 50 -13 85 47 50 85 -16 17 -14 21 17 50 35 33 142
89 169 89 8 0 20 -10 25 -22z m-726 -1110 c-19 -36 -156 -167 -244 -234 -228
-172 -493 -326 -725 -419 -109 -44 -255 -83 -266 -72 -29 29 220 250 451 399
278 180 635 341 768 347 26 1 27 -1 16 -21z m1474 -872 c77 -28 106 -75 86
-143 -26 -95 -146 -183 -280 -205 -76 -13 -132 -1 -178 38 -44 37 -48 74 -16
139 63 130 260 216 388 171z"/>
<path d="M2991 2820 c-90 -100 -98 -124 -55 -167 20 -20 31 -24 57 -19 17 4
37 12 44 19 19 20 104 218 101 236 -2 10 -15 17 -34 19 -28 3 -40 -6 -113 -88z"/>
</g>
</svg>
